# xmcd
# 
# Track frame offsets:
#     150
#     22377
#     45542
#     67327
#     84277
#     98790
#     123782
#     141182
#     156277
#     161395
# 
# Disc length: 2371
# 
# Revision: 5
# Processed by: cddbd v1.5.2PL0 Copyright (c) Steve Scherf et al.
# Submitted via: BonkEnc v1.0.6
# 
DISCID=8209410a
DTITLE=Savatage - Hall Of The Mountain King
DYEAR=1987
DGENRE=Heavy Metal
TTITLE0=24 Hrs. Ago
TTITLE1=Beyond The Doors Of The Dark
TTITLE2=Legions
TTITLE3=Strange Wings
TTITLE4=Prelude To Madness
TTITLE5=Hall Of The Mountain King
TTITLE6=The Price You Pay
TTITLE7=White Witch
TTITLE8=Last Dawn
TTITLE9=Devastation
EXTD=YEAR: 1987
EXTT0=
EXTT1=
EXTT2=
EXTT3=
EXTT4=
EXTT5=
EXTT6=
EXTT7=
EXTT8=
EXTT9=
PLAYORDER=
